<svg width="24" height="24" viewBox="0 0 24 24" fill="none" xmlns="http://www.w3.org/2000/svg">
<path d="M2.91512 11.8081C9.19912 9.04358 17.3311 5.67308 18.4536 5.20658C21.3981 3.98558 22.3016 4.21958 21.8511 6.92358C21.5276 8.86708 20.5941 15.3016 19.8501 19.3066C19.4086 21.6816 18.4181 21.9631 16.8606 20.9356C16.1116 20.4411 12.3311 17.9411 11.5106 17.3541C10.7616 16.8191 9.72862 16.1756 11.0241 14.9081C11.4851 14.4566 14.5071 11.5711 16.8616 9.32508C17.1701 9.03008 16.7826 8.54558 16.4266 8.78208C13.2531 10.8866 8.85312 13.8076 8.29312 14.1881C7.44712 14.7626 6.63462 15.0261 5.17612 14.6071C4.07412 14.2906 2.99762 13.9131 2.57862 13.7691C0.965116 13.2151 1.34812 12.4976 2.91512 11.8081Z" fill="#103B66"/>
</svg>
