<svg width="24" height="24" viewBox="0 0 24 24" fill="none" xmlns="http://www.w3.org/2000/svg">
<path d="M21.9545 20.4155L18.8295 9.16553C18.679 8.62444 18.1865 8.24999 17.625 8.24999H13.25V7.98511C14.3437 7.50155 15.125 6.40316 15.125 5.12499C15.125 3.40199 13.723 2 12 2C10.277 2 8.87503 3.40199 8.87503 5.12499C8.87503 6.40316 9.65627 7.50155 10.75 7.98511V8.24999H6.37504C5.81352 8.24999 5.32099 8.62444 5.17052 9.16553L2.04554 20.4155C1.94116 20.7918 2.01839 21.1955 2.25487 21.5065C2.49139 21.8175 2.85944 22 3.25006 22H20.75C21.1406 22 21.5086 21.8175 21.7451 21.5065C21.9816 21.1955 22.0588 20.7918 21.9545 20.4155ZM12 4.50003C12.3445 4.50003 12.625 4.7805 12.625 5.12503C12.625 5.46956 12.3445 5.75003 12 5.75003C11.6555 5.75003 11.375 5.46956 11.375 5.12503C11.375 4.7805 11.6554 4.50003 12 4.50003Z" fill="#103B66"/>
</svg>
