<svg width="24" height="24" viewBox="0 0 24 24" fill="none" xmlns="http://www.w3.org/2000/svg">
<path d="M12.25 9.24999V8.24999V7.98511V7.33384L12.8456 7.0705C13.5975 6.73809 14.125 5.98562 14.125 5.12499C14.125 3.95427 13.1707 3 12 3C10.8293 3 9.87503 3.95427 9.87503 5.12499C9.87503 5.98562 10.4025 6.73809 11.1544 7.0705L11.75 7.33384V7.98511V8.24999V9.24999H10.75H6.37504C6.26299 9.24999 6.16432 9.32466 6.13402 9.43322C6.134 9.43329 6.13398 9.43337 6.13396 9.43345L3.00915 20.6828C2.98814 20.7585 3.00385 20.8394 3.05086 20.9012C3.09832 20.9636 3.17193 21 3.25006 21H20.75C20.8281 21 20.9017 20.9636 20.9492 20.9012L12.25 9.24999ZM12.25 9.24999H13.25M12.25 9.24999H13.25M13.25 9.24999H17.625C17.737 9.24999 17.8357 9.32464 17.866 9.43318M13.25 9.24999L17.866 9.43318M17.8661 9.43345L20.9908 20.6827C20.9909 20.6828 20.9909 20.683 20.9909 20.6831C21.0118 20.7588 20.9961 20.8395 20.9492 20.9011L17.8661 9.43345ZM17.8661 9.43345C17.866 9.43339 17.866 9.43334 17.866 9.43328M17.8661 9.43345L17.866 9.43328M17.866 9.43318C17.866 9.43321 17.866 9.43325 17.866 9.43328M17.866 9.43318L17.866 9.43328M13.625 5.12503C13.625 4.22822 12.8968 3.50003 12 3.50003C11.1031 3.50003 10.375 4.22826 10.375 5.12503C10.375 6.02185 11.1032 6.75003 12 6.75003C12.8968 6.75003 13.625 6.02184 13.625 5.12503Z" stroke="#103B66" stroke-width="2"/>
</svg>
