<svg width="24" height="24" viewBox="0 0 24 24" fill="none" xmlns="http://www.w3.org/2000/svg">
<path d="M11.3953 16.8837C11.3953 17.8174 10.6314 18.5814 9.69767 18.5814C8.76395 18.5814 8 17.8174 8 16.8837C8 15.95 8.76395 15.186 9.69767 15.186C10.6314 15.186 11.3953 15.95 11.3953 16.8837ZM9.69767 10.093C8.76395 10.093 8 10.857 8 11.7907C8 12.7244 8.76395 13.4884 9.69767 13.4884C10.6314 13.4884 11.3953 12.7244 11.3953 11.7907C11.3953 10.857 10.6314 10.093 9.69767 10.093ZM9.69767 5C8.76395 5 8 5.76395 8 6.69767C8 7.6314 8.76395 8.39535 9.69767 8.39535C10.6314 8.39535 11.3953 7.6314 11.3953 6.69767C11.3953 5.76395 10.6314 5 9.69767 5ZM14.7907 8.39535C15.7244 8.39535 16.4884 7.6314 16.4884 6.69767C16.4884 5.76395 15.7244 5 14.7907 5C13.857 5 13.093 5.76395 13.093 6.69767C13.093 7.6314 13.857 8.39535 14.7907 8.39535ZM14.7907 10.093C13.857 10.093 13.093 10.857 13.093 11.7907C13.093 12.7244 13.857 13.4884 14.7907 13.4884C15.7244 13.4884 16.4884 12.7244 16.4884 11.7907C16.4884 10.857 15.7244 10.093 14.7907 10.093ZM14.7907 15.186C13.857 15.186 13.093 15.95 13.093 16.8837C13.093 17.8174 13.857 18.5814 14.7907 18.5814C15.7244 18.5814 16.4884 17.8174 16.4884 16.8837C16.4884 15.95 15.7244 15.186 14.7907 15.186Z" fill="#103B66"/>
</svg>
