<svg width="24" height="24" viewBox="0 0 24 24" fill="none" xmlns="http://www.w3.org/2000/svg">
<path d="M12 2C6.48625 2 2 6.48625 2 12C2 17.5138 6.48625 22 12 22C17.5138 22 22 17.5138 22 12C22 6.48625 17.5138 2 12 2ZM12 20.75C7.175 20.75 3.25 16.825 3.25 12C3.25 7.175 7.175 3.25 12 3.25C16.825 3.25 20.75 7.175 20.75 12C20.75 16.825 16.825 20.75 12 20.75Z" fill="#103B66"/>
<path d="M14.1475 15.2712C13.6825 15.5887 13.17 15.75 12.625 15.75C11.4737 15.75 10.4762 14.99 9.935 13.875H12C12.345 13.875 12.625 13.595 12.625 13.25C12.625 12.905 12.345 12.625 12 12.625H9.5525C9.52375 12.4212 9.5 12.2137 9.5 12C9.5 11.7863 9.52375 11.5788 9.5525 11.375H12.625C12.97 11.375 13.25 11.095 13.25 10.75C13.25 10.405 12.97 10.125 12.625 10.125H9.935C10.4762 9.01 11.4737 8.25 12.625 8.25C13.17 8.25 13.6825 8.41125 14.1475 8.72875C14.4325 8.9225 14.8225 8.85125 15.0162 8.565C15.2112 8.28 15.1375 7.89125 14.8525 7.69625C14.185 7.24125 13.415 7 12.625 7C10.7937 7 9.22625 8.29625 8.575 10.125H7.625C7.28 10.125 7 10.405 7 10.75C7 11.095 7.28 11.375 7.625 11.375H8.305C8.2825 11.5825 8.25 11.7863 8.25 12C8.25 12.2137 8.2825 12.4175 8.305 12.625H7.625C7.28 12.625 7 12.905 7 13.25C7 13.595 7.28 13.875 7.625 13.875H8.575C9.22625 15.7037 10.7937 17 12.625 17C13.415 17 14.185 16.7587 14.8525 16.3038C15.1375 16.1087 15.2112 15.72 15.0162 15.435C14.8225 15.15 14.4325 15.0775 14.1475 15.2712Z" fill="#103B66"/>
</svg>
