<svg width="24" height="24" viewBox="0 0 24 24" fill="none" xmlns="http://www.w3.org/2000/svg">
<path fill-rule="evenodd" clip-rule="evenodd" d="M8.08785 14.8376C8.31565 14.6098 8.685 14.6098 8.9128 14.8376L12.0003 17.9251L15.0878 14.8376C15.3157 14.6098 15.685 14.6098 15.9128 14.8376C16.1406 15.0654 16.1406 15.4348 15.9128 15.6626L12.4128 19.1626C12.185 19.3904 11.8157 19.3904 11.5878 19.1626L8.08785 15.6626C7.86004 15.4348 7.86004 15.0654 8.08785 14.8376Z" fill="#103B66"/>
<path fill-rule="evenodd" clip-rule="evenodd" d="M11.5878 4.8376C11.8157 4.6098 12.185 4.6098 12.4128 4.8376L15.9128 8.3376C16.1406 8.56541 16.1406 8.93475 15.9128 9.16256C15.685 9.39037 15.3157 9.39037 15.0878 9.16256L12.0003 6.07504L8.9128 9.16256C8.685 9.39037 8.31565 9.39037 8.08785 9.16256C7.86004 8.93475 7.86004 8.56541 8.08785 8.3376L11.5878 4.8376Z" fill="#103B66"/>
</svg>
