<svg width="24" height="24" viewBox="0 0 24 24" fill="none" xmlns="http://www.w3.org/2000/svg">
<path d="M20.8401 4.61012C20.3294 4.09912 19.7229 3.69376 19.0555 3.4172C18.388 3.14064 17.6726 2.99829 16.9501 2.99829C16.2276 2.99829 15.5122 3.14064 14.8448 3.4172C14.1773 3.69376 13.5709 4.09912 13.0601 4.61012L12.0001 5.67012L10.9401 4.61012C9.90843 3.57842 8.50915 2.99883 7.05012 2.99883C5.59109 2.99883 4.19181 3.57842 3.16012 4.61012C2.12843 5.64181 1.54883 7.04108 1.54883 8.50012C1.54883 9.95915 2.12843 11.3584 3.16012 12.3901L12.0001 21.2301L20.8401 12.3901C21.3511 11.8794 21.7565 11.2729 22.033 10.6055C22.3096 9.93801 22.4519 9.2226 22.4519 8.50012C22.4519 7.77763 22.3096 7.06222 22.033 6.39476C21.7565 5.7273 21.3511 5.12087 20.8401 4.61012Z" fill="#103B66"/>
<path fill-rule="evenodd" clip-rule="evenodd" d="M14.462 2.49337C15.2508 2.16652 16.0963 1.99829 16.9501 1.99829C17.804 1.99829 18.6495 2.16652 19.4383 2.49337C20.2269 2.82015 20.9435 3.2991 21.5471 3.90284C22.1508 4.5064 22.6301 5.2233 22.9569 6.01197C23.2837 6.80078 23.4519 7.64627 23.4519 8.50012C23.4519 9.35397 23.2837 10.1994 22.9569 10.9883C22.6301 11.777 22.1511 12.4936 21.5472 13.0972L12.7072 21.9372C12.3167 22.3277 11.6835 22.3277 11.293 21.9372L2.45301 13.0972C1.23378 11.878 0.548828 10.2244 0.548828 8.50012C0.548828 6.77587 1.23378 5.12224 2.45301 3.90301C3.67224 2.68378 5.32587 1.99883 7.05012 1.99883C8.77437 1.99883 10.428 2.68378 11.6472 3.90301L12.0001 4.2559L12.3528 3.90318C12.9564 3.29935 13.6732 2.82018 14.462 2.49337ZM16.9501 3.99829C16.359 3.99829 15.7737 4.11476 15.2276 4.34104C14.6815 4.56731 14.1853 4.89897 13.7674 5.31706L12.7072 6.37722C12.3167 6.76775 11.6835 6.76775 11.293 6.37722L10.233 5.31722C9.38886 4.47307 8.24394 3.99883 7.05012 3.99883C5.8563 3.99883 4.71138 4.47307 3.86723 5.31722C3.02307 6.16138 2.54883 7.3063 2.54883 8.50012C2.54883 9.69393 3.02307 10.8389 3.86723 11.683L12.0001 19.8159L20.133 11.683C20.5511 11.2651 20.8829 10.7688 21.1092 10.2227C21.3355 9.67658 21.4519 9.09124 21.4519 8.50012C21.4519 7.90899 21.3355 7.32366 21.1092 6.77755C20.8829 6.23145 20.5513 5.73528 20.1332 5.31739C19.7153 4.8993 19.2188 4.56731 18.6727 4.34104C18.1266 4.11476 17.5412 3.99829 16.9501 3.99829Z" fill="#103B66"/>
</svg>
