<svg width="24" height="24" viewBox="0 0 24 24" fill="none" xmlns="http://www.w3.org/2000/svg">
<path fill-rule="evenodd" clip-rule="evenodd" d="M10.5021 1.40264C10.9577 1.14014 11.4742 1.00195 12 1.00195C12.5258 1.00195 13.0424 1.14015 13.4979 1.40267C13.4986 1.40307 13.4993 1.40348 13.5 1.40388L20.5 5.40387C20.87 5.61748 21.1891 5.90705 21.4369 6.25226C21.4973 6.31263 21.5508 6.38178 21.5956 6.45918C21.6342 6.52585 21.6642 6.59512 21.686 6.66571C21.8917 7.07918 21.9995 7.53538 22 7.99888V16.0009C21.9995 16.527 21.8606 17.0437 21.5973 17.4992C21.334 17.9547 20.9556 18.3329 20.5 18.5959L20.4961 18.5981L13.5 22.5959C13.4994 22.5963 13.4988 22.5966 13.4982 22.597C13.181 22.7798 12.8342 22.9024 12.4753 22.96C12.3339 23.0365 12.172 23.0799 12 23.0799C11.828 23.0799 11.6661 23.0365 11.5247 22.96C11.1658 22.9024 10.8191 22.7798 10.5019 22.597C10.5012 22.5966 10.5006 22.5963 10.5 22.5959L3.50386 18.5981L3.5 18.5959C3.04439 18.3329 2.66597 17.9547 2.40269 17.4992C2.13941 17.0437 2.00054 16.527 2 16.0009V7.99888C2.00048 7.53539 2.10832 7.07918 2.31402 6.66572C2.33581 6.59512 2.36583 6.52585 2.40439 6.45918C2.44917 6.38178 2.50272 6.31263 2.56308 6.25226C2.81094 5.90705 3.13002 5.61748 3.5 5.40388L3.50386 5.40165L6.75258 3.54525C6.90017 3.37894 7.09618 3.27039 7.30632 3.22882L10.5021 1.40264ZM7.54999 5.39309L5.03899 6.82794L12 10.8546L14.5065 9.4047L7.54999 5.39309ZM16.5052 8.24854L9.5609 4.244L11.4961 3.13815L11.5 3.13593C11.652 3.04816 11.8245 3.00195 12 3.00195C12.1755 3.00195 12.348 3.04816 12.5 3.13593L18.961 6.82794L16.5052 8.24854ZM20 8.53744L13 12.5867V20.5782L19.5 16.8639C19.5005 16.8636 19.5011 16.8633 19.5016 16.863C19.6527 16.7753 19.7783 16.6496 19.8658 16.4983C19.9535 16.3465 19.9998 16.1742 20 15.9989V8.53744ZM11 20.5782V12.5867L4 8.53744V15.9993C4.00025 16.1745 4.04654 16.3466 4.13423 16.4983C4.22169 16.6496 4.34726 16.7753 4.49842 16.863C4.49895 16.8633 4.49947 16.8636 4.5 16.8639L11 20.5782Z" fill="#103B66"/>
</svg>
