<svg width="24" height="24" viewBox="0 0 24 24" fill="none" xmlns="http://www.w3.org/2000/svg">
<path fill-rule="evenodd" clip-rule="evenodd" d="M19.7945 4.19753C18.7798 3.18095 17.5724 2.37487 16.2424 1.826C14.9124 1.27714 13.4862 0.996393 12.0463 1.00003C6.00886 1.00003 1.09395 5.8904 1.09151 11.9017C1.09151 13.8228 1.59545 15.6978 2.5533 17.3519L1 23L6.80687 21.4832C8.41311 22.3535 10.2126 22.8098 12.0415 22.8106H12.0463C18.0826 22.8106 22.9975 17.9202 23 11.9089C23.0041 10.4765 22.723 9.05753 22.1728 7.73392C21.6226 6.41032 20.8143 5.20836 19.7945 4.19753ZM12.0463 20.9707H12.0427C10.4119 20.9709 8.81118 20.5342 7.40842 19.7066L7.07653 19.5098L3.63072 20.4097L4.54952 17.0665L4.33355 16.724C3.42181 15.2794 2.93916 13.6076 2.94132 11.9017C2.94376 6.90563 7.02772 2.84106 12.05 2.84106C13.2461 2.83841 14.4308 3.07189 15.5357 3.52798C16.6405 3.98407 17.6434 4.65371 18.4865 5.49815C19.3341 6.33856 20.0059 7.33783 20.4631 8.4382C20.9203 9.53856 21.1538 10.7182 21.1502 11.9089C21.1477 16.905 17.0638 20.9707 12.0463 20.9707ZM17.0406 14.1835C16.766 14.0463 15.4214 13.3881 15.17 13.297C14.9199 13.2059 14.7381 13.161 14.555 13.433C14.372 13.705 13.8473 14.3183 13.6875 14.5005C13.5277 14.6826 13.3678 14.7045 13.0945 14.5685C12.8212 14.4324 11.939 14.1446 10.8933 13.2168C10.0794 12.4943 9.53032 11.6029 9.37048 11.3297C9.21063 11.0564 9.35339 10.9095 9.49127 10.7735C9.61451 10.652 9.7646 10.4553 9.90126 10.2962C10.0379 10.1371 10.0831 10.0242 10.1746 9.84204C10.2661 9.65988 10.2209 9.50079 10.1514 9.36478C10.0831 9.22756 9.5352 7.88686 9.30703 7.3416C9.08617 6.81334 8.86044 6.88377 8.69205 6.87649C8.51766 6.86939 8.34313 6.86615 8.16859 6.86677C8.0298 6.87029 7.89324 6.90231 7.76747 6.96083C7.6417 7.01934 7.52943 7.10308 7.4377 7.2068C7.18634 7.48004 6.47986 8.13824 6.47986 9.47894C6.47986 10.8196 7.46089 12.1154 7.59755 12.2975C7.73421 12.4797 9.52788 15.2303 12.2733 16.4107C12.9273 16.6912 13.4374 16.8588 13.8339 16.9851C14.4892 17.1928 15.0858 17.1624 15.558 17.0932C16.0839 17.0155 17.1772 16.435 17.4054 15.7986C17.6336 15.1623 17.6336 14.617 17.5652 14.5029C17.4969 14.3887 17.3127 14.3195 17.0406 14.1835Z" fill="#103B66"/>
</svg>
