<svg width="24" height="24" viewBox="0 0 24 24" fill="none" xmlns="http://www.w3.org/2000/svg">
<g clip-path="url(#clip0)">
<path d="M0.557544 24C0.422779 24 0.291675 23.9467 0.194446 23.8484C0.0662722 23.7188 0.0168337 23.5305 0.0649905 23.3546L1.62523 17.657C0.653858 15.9005 0.141712 13.9135 0.142444 11.8964C0.145191 5.33661 5.48345 0 12.0427 0C15.2241 0.00128174 18.2135 1.24054 20.4604 3.48907C22.7069 5.73779 23.9436 8.72699 23.9427 11.9059C23.9397 18.4658 18.6015 23.8028 12.0427 23.8028C12.0427 23.8028 12.0377 23.8028 12.0375 23.8028C10.1217 23.8021 8.22234 23.3351 6.53118 22.4507L0.687 23.9833C0.644153 23.9945 0.600574 24 0.557544 24Z" fill="#E5E5E5"/>
<path d="M0.557617 23.4894L2.17334 17.5892C1.1767 15.8623 0.652466 13.9034 0.653198 11.8966C0.655762 5.61847 5.76477 0.510742 12.0427 0.510742C15.0892 0.512024 17.9488 1.69781 20.0992 3.85004C22.2494 6.00226 23.4332 8.8631 23.4321 11.9058C23.4293 18.1837 18.3196 23.2922 12.0427 23.2922C12.0424 23.2922 12.0429 23.2922 12.0427 23.2922H12.0378C10.1317 23.2914 8.25885 22.8134 6.59534 21.9061L0.557617 23.4894ZM6.87494 19.8448L7.22083 20.0497C8.67395 20.9122 10.34 21.3683 12.0391 21.3692H12.0427C17.2601 21.3692 21.5067 17.1234 21.5089 11.905C21.5098 9.37616 20.5262 6.99817 18.7389 5.20941C16.9514 3.42065 14.5749 2.435 12.0462 2.4339C6.82459 2.4339 2.57819 6.6792 2.57617 11.8973C2.57544 13.6855 3.07568 15.4269 4.02344 16.9338L4.24866 17.292L3.29211 20.7842L6.87494 19.8448Z" fill="white"/>
<path d="M0.953125 23.0919L2.513 17.3957C1.5506 15.7287 1.04468 13.8374 1.04523 11.9003C1.04761 5.83954 5.97992 0.908691 12.0402 0.908691C14.9816 0.909973 17.7422 2.05475 19.8177 4.13245C21.8938 6.21014 23.0364 8.97192 23.0353 11.9089C23.0327 17.9699 18.1002 22.9013 12.0407 22.9013C12.0402 22.9013 12.0409 22.9013 12.0407 22.9013H12.0358C10.1957 22.9006 8.38757 22.4388 6.78174 21.5635L0.953125 23.0919Z" fill="#64B161"/>
<path d="M0.557617 23.4894L2.17334 17.5892C1.1767 15.8623 0.652466 13.9034 0.653198 11.8966C0.655762 5.61847 5.76477 0.510742 12.0427 0.510742C15.0892 0.512024 17.9488 1.69781 20.0992 3.85004C22.2494 6.00226 23.4332 8.8631 23.4321 11.9058C23.4293 18.1837 18.3196 23.2922 12.0427 23.2922C12.0424 23.2922 12.0429 23.2922 12.0427 23.2922H12.0378C10.1317 23.2914 8.25885 22.8134 6.59534 21.9061L0.557617 23.4894ZM6.87494 19.8448L7.22083 20.0497C8.67395 20.9122 10.34 21.3683 12.0391 21.3692H12.0427C17.2601 21.3692 21.5067 17.1234 21.5089 11.905C21.5098 9.37616 20.5262 6.99817 18.7389 5.20941C16.9514 3.42065 14.5749 2.435 12.0462 2.4339C6.82459 2.4339 2.57819 6.6792 2.57617 11.8973C2.57544 13.6855 3.07568 15.4269 4.02344 16.9338L4.24866 17.292L3.29211 20.7842L6.87494 19.8448Z" fill="white"/>
<path fill-rule="evenodd" clip-rule="evenodd" d="M9.19574 7.1366C8.9826 6.66272 8.75811 6.6532 8.55523 6.64496C8.38934 6.63782 8.19946 6.63819 8.00995 6.63819C7.82025 6.63819 7.5119 6.7096 7.25116 6.99433C6.99023 7.27906 6.25488 7.96753 6.25488 9.36774C6.25488 10.7681 7.27478 12.1211 7.41705 12.3112C7.55932 12.501 9.3858 15.4662 12.2783 16.607C14.6823 17.5551 15.1714 17.3665 15.6932 17.3191C16.2151 17.2717 17.3769 16.6306 17.614 15.9661C17.8513 15.3016 17.8513 14.7322 17.7801 14.613C17.7088 14.4945 17.5192 14.4233 17.2346 14.281C16.9501 14.1387 15.551 13.4501 15.29 13.3552C15.0291 13.2602 14.8394 13.213 14.6497 13.4979C14.4598 13.7824 13.9149 14.4233 13.7488 14.613C13.5828 14.8032 13.4167 14.827 13.1321 14.6846C12.8476 14.5419 11.931 14.2416 10.8437 13.2721C9.99774 12.5179 9.42645 11.5862 9.26037 11.3013C9.09448 11.0168 9.25763 10.8762 9.38543 10.7207C9.6156 10.4407 10.0018 9.93738 10.0966 9.74768C10.1915 9.55762 10.144 9.39154 10.073 9.24909C10.0018 9.10681 9.4486 7.69947 9.19574 7.1366Z" fill="white"/>
</g>
<defs>
<clipPath id="clip0">
<rect width="24" height="24" fill="white"/>
</clipPath>
</defs>
</svg>
