<svg width="24" height="24" viewBox="0 0 24 24" fill="none" xmlns="http://www.w3.org/2000/svg">
<path d="M1 1L23 23" stroke="#103B66" stroke-width="2" stroke-linecap="round" stroke-linejoin="round"/>
<path d="M16.7197 11.0601C17.5388 11.4598 18.3048 11.9604 18.9997 12.5501" stroke="#103B66" stroke-width="2" stroke-linecap="round" stroke-linejoin="round"/>
<path d="M5 12.5499C6.48208 11.3107 8.26587 10.4861 10.17 10.1599" stroke="#103B66" stroke-width="2" stroke-linecap="round" stroke-linejoin="round"/>
<path d="M10.71 5.04998C12.8524 4.87735 15.0076 5.13815 17.047 5.8168C19.0864 6.49546 20.9682 7.57806 22.58 8.99998" stroke="#103B66" stroke-width="2" stroke-linecap="round" stroke-linejoin="round"/>
<path d="M1.41992 9.00012C2.80709 7.77397 4.39762 6.79934 6.11992 6.12012" stroke="#103B66" stroke-width="2" stroke-linecap="round" stroke-linejoin="round"/>
<path d="M8.53027 16.11C9.54548 15.3887 10.7599 15.0012 12.0053 15.0012C13.2506 15.0012 14.4651 15.3887 15.4803 16.11" stroke="#103B66" stroke-width="2" stroke-linecap="round" stroke-linejoin="round"/>
<path d="M12 20H12.01" stroke="#103B66" stroke-width="2" stroke-linecap="round" stroke-linejoin="round"/>
</svg>
