<svg width="24" height="24" viewBox="0 0 24 24" fill="none" xmlns="http://www.w3.org/2000/svg">
<mask id="mask0" style="mask-type:alpha" maskUnits="userSpaceOnUse" x="3" y="4" width="18" height="16">
<path fill-rule="evenodd" clip-rule="evenodd" d="M20.7915 5.71387C20.7915 6.54387 20.1215 7.21387 19.2915 7.21387H15.0015L13.5515 10.5839L11.4615 8.49387L12.0115 7.21387H10.1815L7.18148 4.21387H19.2915C20.1215 4.21387 20.7915 4.88387 20.7915 5.71387ZM4.91148 4.77387L18.2315 18.0939C18.6215 18.4839 18.6215 19.1139 18.2215 19.4939C17.8315 19.8839 17.2015 19.8839 16.8115 19.4939L11.8615 14.5439L10.6515 17.3739C10.4315 17.8839 9.93148 18.2139 9.38148 18.2139C8.39148 18.2139 7.72148 17.2039 8.11148 16.2839L9.76148 12.4439L3.50148 6.18387C3.11148 5.79387 3.11148 5.16387 3.50148 4.77387C3.68832 4.58661 3.94197 4.48138 4.20648 4.48138C4.471 4.48138 4.72465 4.58661 4.91148 4.77387Z" fill="black"/>
</mask>
<g mask="url(#mask0)">
<rect width="24" height="24" fill="#858C94"/>
</g>
</svg>
