<svg width="24" height="24" viewBox="0 0 24 24" fill="none" xmlns="http://www.w3.org/2000/svg">
<mask id="mask0" style="mask-type:alpha" maskUnits="userSpaceOnUse" x="2" y="7" width="20" height="10">
<path fill-rule="evenodd" clip-rule="evenodd" d="M3.95531 11.38C4.23531 9.91 5.61531 8.9 7.11531 8.9H10.0453C10.5653 8.9 10.9953 8.47 10.9953 7.95C10.9953 7.43 10.5653 7 10.0453 7H7.21531C4.60531 7 2.27531 8.91 2.02531 11.51C1.73531 14.49 4.07531 17 6.99531 17H10.0453C10.5653 17 10.9953 16.57 10.9953 16.05C10.9953 15.53 10.5653 15.1 10.0453 15.1H6.99531C5.08531 15.1 3.57531 13.36 3.95531 11.38ZM8.99531 13H14.9953C15.5453 13 15.9953 12.55 15.9953 12C15.9953 11.45 15.5453 11 14.9953 11H8.99531C8.44531 11 7.99531 11.45 7.99531 12C7.99531 12.55 8.44531 13 8.99531 13ZM13.9453 7H16.7753C19.3853 7 21.7253 8.91 21.9753 11.51C22.2553 14.49 19.9153 17 16.9953 17H13.9453C13.4253 17 12.9953 16.57 12.9953 16.05C12.9953 15.53 13.4253 15.1 13.9453 15.1H16.9953C18.9053 15.1 20.4153 13.36 20.0353 11.38C19.7553 9.91 18.3753 8.9 16.8753 8.9H13.9453C13.4253 8.9 12.9953 8.47 12.9953 7.95C12.9953 7.43 13.4253 7 13.9453 7Z" fill="black"/>
</mask>
<g mask="url(#mask0)">
<rect width="24" height="24" fill="#858C94"/>
</g>
</svg>
